<svg width="184" height="189" viewBox="0 0 184 189" fill="none" xmlns="http://www.w3.org/2000/svg">
<path d="M147.141 118.243C146.268 119.556 142.841 125.377 142.126 126.094L142.125 126.092V126.094C135.975 137.163 131.267 148.053 129.442 160.721C128.997 163.814 128.887 166.564 128.604 169.633C128.605 169.635 128.604 169.637 128.604 169.639C128.605 169.637 128.606 169.635 128.606 169.633C128.671 176.353 131.904 189.08 122.26 188.926C122.106 188.923 121.95 188.919 121.79 188.91C118.286 188.712 113.982 183.355 111.187 181.067C97.4233 169.565 78.6408 163.486 60.957 161.825L60.9561 161.824C59.4161 161.673 57.8747 161.539 56.332 161.422C57.3877 161.13 58.3261 160.922 59.3984 160.696C82.0281 153.931 97.8646 148.181 118.87 136.427C123.387 133.906 127.82 131.236 132.161 128.422C134.465 126.913 137.844 124.311 140.15 123.159C142.082 121.492 144.976 119.626 147.14 118.243L147.139 118.244L147.141 118.243ZM36.626 0.00656128C36.7468 0.013384 36.8683 0.0256569 36.9902 0.0426941C38.2099 0.212869 39.4804 0.899386 40.6885 2.21457C41.3354 2.91883 41.9421 3.68426 42.5234 4.48508C42.6687 4.68521 42.8127 4.88739 42.9551 5.09152C44.0947 6.72524 45.1489 8.47408 46.2402 10.1296C46.513 10.5434 46.7881 10.9514 47.0674 11.3503C47.207 11.5498 47.3482 11.7466 47.4902 11.9411C49.6773 14.9365 52.1192 17.7916 54.2988 20.7859L54.7314 21.3874H54.7324C59.6905 27.2292 64.1005 32.2148 69.5596 37.6081C75.5805 43.3723 82.1268 48.5614 89.1133 53.1071C90.8503 54.2467 95.6326 56.6917 96.8369 57.615C108.207 63.0374 119.057 67.0636 131.688 68.2634C133.209 68.4081 137.507 68.6371 138.738 68.9851C149.147 69.0931 159.059 68.9928 169.333 66.9314C170.864 66.6241 172.463 66.3812 174.009 66.4079C175.792 66.4387 177.505 66.828 178.962 67.8923C179.059 67.9634 179.155 68.0378 179.25 68.115C179.439 68.269 179.624 68.4354 179.804 68.615C179.893 68.7046 179.981 68.798 180.068 68.8943C181.266 70.2207 182.095 71.5399 182.57 72.8464C183.098 74.298 183.19 75.7342 182.868 77.1462C182.546 78.5583 181.81 79.9467 180.683 81.3034C180.344 81.7104 179.971 82.1143 179.562 82.5154C178.705 83.2921 177.695 84.2582 176.811 84.9734L176.812 84.9743C175.664 85.9941 174.432 87.1362 173.268 88.1159L173.267 88.114L173.266 88.1159C166.506 93.9491 156.508 100.49 148.893 105.304C116.265 125.617 81.5691 142.4 45.3896 155.369C37.7057 158.08 26.2527 161.92 18.1748 163.264L18.1758 163.265C17.4953 163.402 13.8371 164.177 13.3809 164.184L13.3799 164.183L13.3789 164.184C10.8293 164.867 8.29674 165.414 5.90039 164.282C4.75231 163.931 3.5921 163.127 2.75098 162.285C0.962393 160.48 -0.027772 158.033 0.000976562 155.492C0.042606 153.066 1.3324 150.501 3.08105 148.876C6.80775 145.413 10.3861 141.772 14.0596 138.264C14.2423 137.838 16.1745 135.66 16.5947 135.207C19.6638 131.894 22.2231 128.498 24.8047 124.784C31.6982 114.978 36.7302 103.987 39.6484 92.3611C40.4141 89.3449 40.6772 85.4461 41.5459 82.6091C41.7241 79.7082 42.1318 76.7888 42.2891 73.8034C42.6326 66.6084 42.4471 59.3972 41.7344 52.2292C41.3142 50.9471 40.8874 46.1951 40.6602 44.6491C40.0682 40.7275 39.3398 36.8274 38.4756 32.9568C38.2281 32.2235 37.7779 30.3136 37.6377 29.4851C36.2787 21.4501 32.4501 13.0547 30.8818 5.21945C31.7784 2.10427 33.8748 0.0654313 36.2646 0.00167847C36.3844 -0.00153516 36.5049 -0.00025657 36.626 0.00656128Z" fill="#4FB3CE"/>
</svg>
