<svg width="500" height="500" viewBox="0 0 500 500" fill="none" xmlns="http://www.w3.org/2000/svg">
<path d="M500 0V500H0V0H500ZM234.835 211.412C223.288 211.412 213.129 214.043 204.359 219.305C195.589 224.567 188.719 231.73 183.749 240.792C178.78 249.708 176.295 259.721 176.295 270.829C176.295 281.938 178.78 292.024 183.749 301.086C188.719 310.002 195.589 317.091 204.359 322.353C213.129 327.615 223.288 330.246 234.835 330.246C246.236 330.246 256.322 327.615 265.091 322.353C273.862 317.091 280.732 310.002 285.701 301.086C290.671 292.024 293.156 281.938 293.156 270.829C293.156 259.721 290.671 249.708 285.701 240.792C280.731 231.876 273.861 224.787 265.091 219.525C256.322 214.116 246.236 211.412 234.835 211.412ZM37 169.754V326.738H61.1172V261.401H125.138V238.599H61.1172V192.556H132.155V169.754H37ZM142.005 169.754V326.738H165.684V169.754H142.005ZM289.573 214.92L325.31 326.738H349.867L375.519 245.834H376.396L402.268 326.738H427.043L463 214.92H437.787L414.766 295.385H413.889L388.675 214.92H364.338L339.124 295.385H338.247L315.225 214.92H289.573ZM234.835 233.117C240.974 233.117 246.675 234.651 251.937 237.721C257.199 240.644 261.437 244.956 264.653 250.657C268.016 256.212 269.696 262.935 269.696 270.828C269.696 278.721 268.015 285.518 264.653 291.219C261.438 296.773 257.199 301.085 251.937 304.155C246.675 307.078 240.974 308.54 234.835 308.54C228.842 308.54 223.141 307.079 217.733 304.155C212.325 301.085 207.939 296.773 204.578 291.219C201.362 285.518 199.754 278.721 199.754 270.828C199.754 262.935 201.362 256.212 204.578 250.657C207.94 244.956 212.252 240.644 217.514 237.721C222.923 234.652 228.696 233.117 234.835 233.117Z" fill="black"/>
</svg>
