<svg width="445" height="409" viewBox="0 0 445 409" fill="none" xmlns="http://www.w3.org/2000/svg">
<path d="M151.156 0.258403C162.885 -0.965846 179.464 2.2574 189.838 7.86415C203.904 15.4669 214.121 27.5954 218.689 42.9847C220.807 50.1167 221.586 57.4844 221.594 64.9019C221.625 92.1887 208.001 112.838 189.371 131.557C177.73 143.253 164.711 153.496 151.232 162.992C136.387 173.451 109.425 189.697 100.947 205.467C97.4769 211.921 96.0407 220.44 98.2497 227.533C99.9889 233.118 104.235 237.95 109.405 240.62C118.798 245.47 129.161 242.018 137.218 236.12C145.783 229.853 157.782 214.728 164.895 206.213C174.763 194.485 184.5 182.648 194.104 170.703C219.078 139.937 245.7 106.946 284.86 93.9609C307.253 86.4672 330.495 89.0806 351.368 99.8089C383.328 116.236 400.555 152.872 406.768 186.769C407.4 190.225 407.618 194.262 408.698 197.555L408.808 197.889C412.04 198.565 417.245 198.401 420.678 198.396L435.373 198.37C436.558 198.368 444.44 198.053 444.61 199.458C445.06 203.208 444.768 207.423 444.76 211.228L444.748 237.703C444.75 243.008 444.753 248.295 444.913 253.593C444.798 256.588 444.055 257.28 441.203 257.255C432.755 256.98 423.808 257.428 415.403 257.143C406.315 256.833 408.028 261.978 407.188 269.818C401.338 324.36 376.348 385.85 319.765 404.148C299.723 410.63 276.925 409.518 257.848 399.74C240.065 390.733 226.633 374.978 220.554 355.993C218.099 348.353 217.669 343.553 217.482 335.688C217.027 316.55 224.424 301.3 233.038 284.595C234.278 282.36 235.54 280.135 236.823 277.925C252.208 251.895 274.833 230.9 301.94 217.503C313.773 211.736 326.895 207.191 339.643 204.049C342.228 203.412 346.503 202.587 347.768 200.185C349.725 195.824 347.373 188.086 346.353 183.839C340.855 160.907 307.613 151.754 288.073 161.493C265.663 172.664 246.36 198.189 230.708 218.03C222.942 227.988 215.038 237.838 206.997 247.575C194.667 262.22 181.176 276.043 166.467 288.3C155.659 297.083 144.184 305.753 130.607 309.71C87.2112 322.36 46.6392 300.735 33.4507 257.758C30.8517 249.438 29.6154 240.75 29.7897 232.035C29.9787 216.533 35.0732 200.517 43.9059 187.804C64.5682 158.067 95.4132 137.318 125.201 117.692C137.444 109.626 149.897 100.642 156.846 87.3862C160.329 80.7414 163.461 71.6572 161.224 64.1732C159.132 57.5042 152.112 56.2544 146.091 57.8299C134.309 60.9132 123.979 69.8752 115.936 78.7044C112.509 82.5644 109.442 86.7897 105.988 90.6217C93.6052 104.357 78.5517 116.245 60.9009 122.304C45.4682 127.602 28.9512 127.389 13.2712 123.258C8.98317 122.128 4.78087 121.018 0.778517 119.024C-0.576308 114.444 0.237943 109.495 0.288968 104.767C0.385768 95.7949 0.349319 86.8144 0.316119 77.8439C0.306719 75.3027 -0.509457 65.2217 0.779418 63.7452C1.43339 63.5847 2.03302 63.5279 2.69194 63.7064C14.0654 66.7859 24.9874 69.9272 36.9254 69.2829C49.9024 68.5824 61.1554 62.4217 69.8414 52.8784C73.2934 49.0859 76.4842 45.0004 79.8629 41.1234C85.1507 35.1154 90.7322 29.3724 96.5872 23.9154C113.817 7.9029 127.559 1.8604 151.156 0.258403ZM284.523 344.493C298.833 356.278 317.585 340.248 326.713 328.753C341.713 309.863 349.473 283.865 351.945 260.108C352 259.588 351.778 259.31 351.515 258.938C351.275 258.93 350.888 258.9 350.665 258.93C347.258 259.515 341.99 261.683 338.713 262.975C319.18 270.673 302.973 284.968 290.858 301.96C285.248 309.828 277.448 324.688 278.903 334.75C279.483 338.755 281.645 341.755 284.523 344.493Z" fill="black"/>
</svg>
