<svg width="199" height="200" viewBox="0 0 199 200" fill="none" xmlns="http://www.w3.org/2000/svg">
<path d="M146.688 0C175.549 9.8958e-05 198.945 23.3969 198.945 52.2578V147.742C198.945 176.603 175.549 200 146.688 200H51.3125C22.4515 200 -0.945312 176.603 -0.945312 147.742V52.2578C-0.945312 23.3969 22.4515 0 51.3125 0H146.688ZM118.976 22.1426C107.857 11.0236 89.829 11.0236 78.71 22.1426L20.8672 79.9854C9.74818 91.1044 9.74817 109.132 20.8672 120.251L78.71 178.094C89.829 189.213 107.857 189.213 118.976 178.094L176.819 120.251C187.938 109.132 187.938 91.1043 176.819 79.9854L118.976 22.1426Z" fill="#F11F24"/>
<path d="M98.9164 149.478C127.199 149.478 150.126 127.339 150.126 100.029C150.126 72.7195 127.199 50.5806 98.9164 50.5806C70.6343 50.5806 47.707 72.7195 47.707 100.029C47.707 127.339 70.6343 149.478 98.9164 149.478Z" fill="#7D4CCF"/>
</svg>
