<svg width="153" height="135" viewBox="0 0 153 135" fill="none" xmlns="http://www.w3.org/2000/svg">
<path d="M75.8682 0C77.9814 0.00488281 80.1729 1.07656 81.3838 2.83008C86.6515 10.4566 90.9319 19.3391 95.7969 27.2324C98.2336 31.1857 101.048 37.2873 103.853 40.5908C100.931 42.7591 96.7209 45.3481 93.5967 47.5068C89.8088 50.1242 83.9844 54.7291 79.9512 56.3203C85.9246 59.319 91.9602 67.1084 93.4385 73.5811C94.5803 71.8254 109.994 58.0513 112.335 56.2246L140.741 105.381C144.346 111.72 148.313 117.822 151.524 124.367C153.249 127.882 152.411 130.737 149.039 132.82C147.969 133.481 145.477 134.408 144.226 134.038C139.139 132.531 134.395 129.664 129.449 127.708C124.02 125.684 118.084 123.913 112.522 122.529C106.225 121.35 97.8763 119.395 91.5869 118.711C82.4445 117.716 71.3744 117.982 62.2002 118.553C58.5535 118.896 54.9453 119.682 51.3389 120.274C41.0803 121.961 30.9658 124.466 21.2764 128.266C16.8994 129.982 12.6156 132.81 7.98633 133.976C6.27517 134.406 4.16817 133.797 2.76953 132.799C1.30024 131.75 0.318398 130.151 0.0488281 128.366C-0.539844 124.322 4.34531 117.459 6.4668 113.871L13.7158 101.378L41.3867 53.3516L60.3809 20.4102L67.0654 8.77246C69.3693 4.80157 70.7895 0.685357 75.8682 0ZM82.4805 65.7344C79.747 62.989 74.7291 62.0537 71.0029 62.7031C65.4033 63.5025 62.1318 65.3395 57.5664 68.5928C46.7118 76.3281 43.8901 92.5678 31.6016 98.6035C36.8157 99.9295 42.1182 100.467 47.4727 100.86C51.0094 100.918 56.801 100.845 60.125 99.9893C71.1383 97.1555 85.7629 86.9148 85.9248 74.3867C85.9911 71.156 84.7489 68.0356 82.4805 65.7344Z" fill="#00CDAD"/>
</svg>
