<svg width="12" height="12" viewBox="0 0 12 12" fill="none" xmlns="http://www.w3.org/2000/svg">
<path d="M4.0166 7.13575C4.12232 7.13575 4.22752 7.15681 4.3252 7.19727C4.42262 7.23767 4.51132 7.29656 4.58594 7.3711L4.60742 7.39258L4.60645 7.39356L4.62695 7.41407C4.7777 7.565 4.8623 7.77007 4.8623 7.9834C4.8622 8.19655 4.77755 8.40093 4.62695 8.55176L3.08984 10.0889L3.49805 10.4971C3.56626 10.5653 3.61466 10.6507 3.63867 10.7441C3.66267 10.8376 3.66163 10.9357 3.63477 11.0283C3.6079 11.1209 3.55654 11.2044 3.48633 11.2705C3.41606 11.3366 3.32947 11.3831 3.23535 11.4043L0.65625 11.9863C0.567505 12.0067 0.475155 12.0039 0.387695 11.9785C0.30026 11.9532 0.220325 11.9065 0.15625 11.8418L0.157227 11.8398C0.0933729 11.776 0.0465676 11.6971 0.0214844 11.6104C-0.00373332 11.5229 -0.00677448 11.4305 0.0136719 11.3418L0.595703 8.7627C0.616871 8.66864 0.663438 8.58195 0.729492 8.51172C0.795527 8.44155 0.879146 8.39016 0.97168 8.36329C1.06424 8.33645 1.16251 8.33544 1.25586 8.35938C1.34924 8.38338 1.43473 8.43186 1.50293 8.5L1.91113 8.90821L3.44727 7.3711C3.52202 7.29634 3.61131 7.23773 3.70898 7.19727C3.80655 7.15686 3.911 7.13579 4.0166 7.13575ZM8.52051 6.62305C8.52051 6.19811 8.9877 5.94016 9.34668 6.167L11.582 7.57911C11.7499 7.68512 11.833 7.86021 11.833 8.03516H11.8359C11.8359 8.21011 11.7519 8.38525 11.585 8.49122L9.34863 9.90235C9.26716 9.95384 9.17348 9.98243 9.07715 9.98536C8.98075 9.98826 8.88525 9.96548 8.80078 9.91895C8.71632 9.87242 8.64574 9.80372 8.59668 9.72071C8.5478 9.63785 8.52155 9.54348 8.52148 9.44727V8.87012H5.00781C5.21927 8.64166 5.34238 8.3456 5.35742 8.03516H5.35547C5.3697 7.73706 5.28319 7.4428 5.10938 7.2002H8.52051V6.62305ZM4.15918 0.00391102C4.31138 0.0222638 4.45704 0.105375 4.5498 0.251958L5.96191 2.48633C6.01357 2.56786 6.04195 2.66232 6.04492 2.75879C6.04782 2.85514 6.025 2.95072 5.97852 3.03516C5.93198 3.11961 5.86329 3.19022 5.78027 3.23926C5.69726 3.28823 5.60224 3.3145 5.50586 3.31446H4.92871V6.66016H4.09375C3.7963 6.64337 3.50194 6.72824 3.25879 6.9004V3.31446H2.68066C2.25589 3.31425 1.9988 2.84621 2.22559 2.48731L3.6377 0.251958C3.68599 0.174668 3.7532 0.110426 3.83301 0.066411C3.91275 0.0224788 4.0027 -0.000384442 4.09375 4.76837e-06L4.15918 0.00391102Z" fill="black"/>
</svg>
