<svg width="249" height="251" viewBox="0 0 249 251" fill="none" xmlns="http://www.w3.org/2000/svg">
<path d="M70.8051 138.071C71.8031 137.947 72.8076 137.9 73.7451 138.326C80.0481 141.188 93.9899 160.103 98.5684 160.997C99.7409 161.226 100.896 160.864 101.886 160.242C103.534 159.209 104.966 157.518 106.335 156.139C109.578 152.871 118.452 143.092 121.732 141.223C122.991 140.506 124.482 140.46 125.809 141.025C131.238 143.336 142.759 159.562 147.617 160.883C148.631 161.159 149.68 161.116 150.61 160.599C152.633 159.474 154.376 157.287 155.988 155.638C159.494 152.055 169.54 141.067 173.275 138.892C174.425 138.223 175.915 137.696 177.24 138.123C178.142 138.415 178.962 139.13 179.665 139.754C182.69 142.433 185.41 145.584 188.282 148.435C192.252 152.373 196.657 156.218 200.24 160.497C201.095 161.519 201.675 162.644 202.255 163.837C202.16 164.04 202.062 164.243 201.962 164.445C201.367 165.654 200.64 166.888 199.687 167.874C193.027 174.769 186.262 181.74 179.202 188.22C178.242 189.103 177.01 189.573 175.802 189.985C168.369 187.233 154.325 166.933 148.98 166.631C147.214 166.531 145.148 168.364 143.957 169.501C141.463 171.883 132.89 179.983 131.472 182.39C131.178 182.888 131.08 183.43 131.091 184.003C131.117 185.303 131.78 186.493 132.517 187.528C135.151 191.213 141.713 197 145.229 200.48C148.004 203.28 158.457 212.293 158.554 215.675C158.62 217.975 156.512 220.033 155.028 221.545C151.135 225.515 128.91 248.353 126.417 249.633C125.086 250.315 123.292 250.158 121.842 250.173C117.259 246.423 112.605 241.12 108.344 236.858C102.806 231.318 96.8229 225.89 91.6214 220.058C90.8809 219.225 89.9149 218.12 89.5506 217.058C89.1146 215.785 89.8251 214.075 90.5106 213.013C91.9314 210.81 94.1236 208.948 95.9729 207.11C100.18 202.928 114.564 189.623 116.626 185.598C117.008 184.853 117.179 184.363 116.882 183.54C115.919 180.888 103.385 168.159 101.046 167.061C99.6306 166.397 98.0966 166.691 96.7824 167.464C94.7141 168.679 93.0234 170.762 91.3511 172.459C87.4281 176.44 76.9061 188.185 72.4359 189.755L72.1361 189.86C71.9046 189.808 71.6744 189.753 71.4451 189.69C70.4314 189.42 69.6924 189.003 68.8679 188.363C65.2826 185.573 48.4546 168.906 46.5449 165.54C46.1886 164.911 45.7361 164.075 45.9786 163.338C46.4621 161.868 47.4784 160.488 48.4491 159.306C50.8696 156.36 53.8959 153.72 56.5874 151.012C60.2761 147.302 63.9004 143.229 67.9216 139.894C68.8281 139.142 69.7461 138.58 70.8051 138.071Z" fill="#FEFEFE"/>
<path d="M226.236 92.0881C227.101 91.9938 228.116 91.9056 228.978 92.0596C231.911 92.5828 244.136 105.322 246.326 108.245C247.081 109.255 248.238 110.901 247.978 112.216C247.738 113.44 246.916 114.595 246.156 115.561C243.651 118.747 232.656 129.664 229.281 131.78C228.668 131.994 228.021 132.143 227.376 131.987C223.928 131.147 210.978 118.173 208.933 114.84C208.236 113.704 207.611 112.288 208.006 110.947C208.316 109.898 209.003 108.865 209.681 108.015C212.161 104.907 223.166 93.8431 226.236 92.0881Z" fill="#FEFEFE"/>
<path d="M18.7842 92.0616C19.3514 92.0126 19.9209 91.9926 20.4904 92.0009C24.2479 92.0834 34.2189 104.388 37.5882 107.12C39.9262 109.016 40.1114 110.843 40.0197 113.652C38.3104 115.971 34.4092 119.702 32.2334 121.804C29.1742 124.759 24.5812 130.207 20.9122 131.947C20.3067 132.048 19.7667 132.108 19.1752 131.9C16.2584 130.876 1.76969 116.143 0.461192 113.327C-0.00830764 112.317 -0.175056 111.569 0.225444 110.506C1.18544 107.959 12.9782 96.2491 15.7469 93.9611C16.7072 93.1679 17.6499 92.5718 18.7842 92.0616Z" fill="#FEFEFE"/>
<path d="M175.443 95.0178C178.951 94.8848 191.541 107.994 192.538 111.267C193.538 114.543 179.633 127.741 176.366 128.462C175.053 128.377 173.787 128.197 172.833 127.263C168.744 123.254 161.055 117.034 158.852 111.887C160.647 107.678 171.424 96.9051 175.443 95.0178Z" fill="#FEFEFE"/>
<path d="M71.4093 95.0093C75.2213 94.9811 87.2653 107.962 89.0901 111.646C89.0671 111.715 89.0441 111.783 89.0213 111.852L88.8981 112.193C87.3886 116.436 81.9871 120.439 78.9958 123.792C77.6113 125.344 75.1338 127.744 73.1581 128.292C72.2838 128.376 71.2766 128.488 70.4288 128.211C68.3226 127.521 57.0513 115.888 55.9396 113.642C55.4516 112.656 55.2838 111.825 55.6546 110.773C56.8256 107.45 68.1121 96.6753 71.4093 95.0093Z" fill="#FEFEFE"/>
<path d="M122.577 98.0653C126.876 97.2798 136.34 108.093 138.087 111.646C136.858 115.392 128.764 124.043 125.239 125.396C121.44 126.211 118.786 122.433 116.28 120.029C113.71 117.563 111.259 115.164 109.84 111.854C111.539 107.882 119.061 100.643 122.577 98.0653Z" fill="#FEFEFE"/>
<path d="M174.237 48.0848C174.792 48.0301 175.755 47.9503 176.29 48.0006C179.862 48.3361 189.01 57.2573 188.002 60.7541C187.272 63.2851 179.867 70.2368 177.41 71.9866C173.17 72.8698 169.542 67.9493 166.809 65.3528C162.218 60.9913 163.926 57.4448 167.894 53.5431C169.857 51.6126 171.765 49.4703 174.237 48.0848Z" fill="#FEFEFE"/>
<path d="M70.8019 48.0578C75.6684 47.5631 80.1611 53.4188 82.9499 56.9033C83.6321 57.7558 84.4169 60.5296 83.9096 61.3601C82.0151 64.4626 76.1556 70.3281 73.1559 72.0743C72.6464 72.1646 71.6556 72.2616 71.2029 72.0458C68.0146 70.5273 61.8726 64.3628 60.3046 61.6173C58.0631 57.6916 67.5236 49.4908 70.8019 48.0578Z" fill="#FEFEFE"/>
<path d="M123.868 49.6168C127.621 50.0013 131.614 54.8813 134.038 57.8016C134.073 59.3116 134.034 60.9361 134.025 62.4556C131.122 65.3728 128.193 69.6693 124.166 70.1696C123.489 70.1708 122.215 70.2233 121.671 69.8051C119.048 67.7866 114.708 64.1911 113.906 60.9021C113.598 59.6363 113.861 57.7851 114.678 56.9328C117.358 54.1388 120.009 50.2993 123.868 49.6168Z" fill="#FEFEFE"/>
<path d="M121.666 0.0653454C123.294 -0.0421546 124.717 0.00559476 126.338 0.0490948C133.202 5.90234 134.786 10.2898 126.121 15.8493C124.615 16.1741 123.414 16.1343 121.873 16.1533C119.885 14.7048 117.384 11.9766 116.084 9.93085C115.955 8.4736 115.983 7.19634 115.998 5.73309C118.079 3.44809 119.371 2.1316 121.666 0.0653454Z" fill="#FEFEFE"/>
</svg>
