<svg width="20" height="20" viewBox="0 0 20 20" fill="none" xmlns="http://www.w3.org/2000/svg">
<path d="M10 0C15.522 0 20 4.477 20 10C20 15.523 15.522 20 10 20C4.476 20 0 15.523 0 10C0 4.477 4.476 0 10 0ZM10.3438 4.05957C7.31905 4.05973 5.72461 5.62227 5.72461 7.91016C5.72466 9.73506 6.59458 10.8138 8.14453 11.9248L5.44922 15.9395H7.69336L10.6963 11.4521L9.65137 10.748C8.38639 9.88906 7.77053 9.21902 7.77051 7.78906C7.77051 6.52406 8.66147 5.66602 10.3555 5.66602H11.2793V15.9277H13.3477V4.05957H10.3438Z" fill="#FC3F1D"/>
</svg>
