<svg width="487" height="322" viewBox="0 0 487 322" fill="none" xmlns="http://www.w3.org/2000/svg">
<path d="M348.341 47.9961C374.68 42.5213 401.773 38.7796 427.725 40.1221C445.312 41.032 462.999 43.7905 474.734 52.3037L474.735 52.3057C477.215 54.1037 479.435 56.3866 482.266 59.5176C483.253 61.3675 484.172 63.3312 484.659 65.0488C487.217 74.0695 486.402 85.5125 484.064 94.4346C480.597 107.673 474.149 121.105 466.979 132.686C436.297 182.242 385.854 224.515 336.31 254.165C267.947 294.742 188.31 320.65 108.472 321.55C89.317 321.765 68.5616 320.098 50.0566 315.263C31.0355 310.293 9.87297 301.532 2.48438 281.822C2.42641 281.711 2.37111 281.598 2.31445 281.485C2.02171 279.274 1.9143 277.188 2.01562 275.134C2.67196 261.837 10.3405 246.491 22.0156 230.966C33.469 215.736 47.6595 201.785 59.1006 191.449L60.8564 189.873C135.514 123.196 250.649 68.3024 348.341 47.9961ZM370.88 151.337C363.21 144.42 348.958 143.467 339.025 143.858C328.928 144.366 319.158 145.669 309.271 147.818C261.338 158.237 194.52 189.922 161.437 226.534C154.393 234.327 145.197 246.109 145.85 257.146C146.081 261.409 148.048 265.392 151.293 268.164C158.976 274.834 173.531 275.73 183.396 275.327C237.53 273.527 321.783 233.677 359.176 193.925C366.551 186.085 376.457 173.512 375.942 162.282C375.742 157.907 374.137 154.274 370.88 151.337ZM169.962 15.2617C206.368 -1.28988 247.44 -4.49355 285.97 6.2129C301.685 10.6639 316.29 17.2184 332.915 18.5156C343.417 19.3353 353.742 18.1962 364.359 18.2324C390.793 18.3222 418.536 20.9258 443.571 29.9639C438.38 29.2939 433.23 28.8957 428.318 28.6416C400.951 27.2259 372.76 31.1791 346.001 36.7412L343.647 37.2363C243.911 58.4616 127.067 114.563 51.3945 182.92L49.1699 184.943C33.0613 199.702 12.0185 221.283 0 243.939C1.22655 237.887 2.96051 232.14 4.86914 227.247C13.8468 204.235 28.1958 183.485 44.291 164.883C50.7095 157.465 57.9126 150.538 63.5186 142.469C72.8058 128.466 80.4188 111.604 87.7207 96.3184C104.663 60.8514 133.889 31.4932 169.962 15.2617Z" fill="#0078FE"/>
</svg>
