<svg width="40" height="40" viewBox="0 0 40 40" fill="none" xmlns="http://www.w3.org/2000/svg">
<path d="M20 0C31.0163 0 40 8.9837 40 20C40 24.3679 38.5866 28.4154 36.1953 31.7109L24.2129 19.5938L15.8721 28.0293L11.8779 23.748L3.80469 31.7119L36.1934 31.7129C32.5534 36.7278 26.6475 40 20 40C8.9837 40 0 31.0163 0 20C0 8.9837 8.9837 0 20 0ZM11.9785 11.791C9.94223 11.791 8.28125 13.4521 8.28125 15.4883C8.28141 17.5244 9.94232 19.1855 11.9785 19.1855C14.0146 19.1855 15.6756 17.5244 15.6758 15.4883C15.6758 13.4521 14.0147 11.7911 11.9785 11.791Z" fill="#FFCC00"/>
</svg>
